<svg xmlns="http://www.w3.org/2000/svg" xmlns:xlink="http://www.w3.org/1999/xlink" viewBox="0 0 141.56 155.97"><defs><style>.cls-1{fill-rule:evenodd;fill:url(#Œ_ƒΩ_32);}.cls-2{fill:url(#Œ_ƒΩ_21);}.cls-3{fill:#0068b7;}</style><linearGradient id="Œ_ƒΩ_32" x1="39.95" y1="6.59" x2="78.17" y2="74.87" gradientUnits="userSpaceOnUse"><stop offset="0" stop-color="#cceafb"/><stop offset="0.35" stop-color="#0095dd"/><stop offset="0.6" stop-color="#056fb8"/><stop offset="1" stop-color="#182a88"/></linearGradient><linearGradient id="Œ_ƒΩ_21" x1="104.01" y1="93.76" x2="57.77" y2="16.29" gradientUnits="userSpaceOnUse"><stop offset="0" stop-color="#182a88"/><stop offset="0.4" stop-color="#056fb8"/><stop offset="0.65" stop-color="#0095dd"/><stop offset="1" stop-color="#cceafb"/></linearGradient></defs><title>Asset 1</title><g id="Layer_2" data-name="Layer 2"><g id="Õ__1" data-name="Õº≤„_1"><g id="_Group_" data-name="&lt;Group&gt;"><path id="_Path_" data-name="&lt;Path&gt;" class="cls-1" d="M81.09,83.83c-8.42,6.18-20.45,7.22-25.93,5.4,3.15,2.18,11.91,2.19,13.76,1.76-11.43,2.89-22.76,2-34.14-6.75C39.36,88.89,48,93.39,52.29,93.7a41,41,0,0,1-13.71-3.63A49.47,49.47,0,0,1,26,21,51.9,51.9,0,0,1,55.37,1.38C68-1.7,82.19.14,95.41,9.3c-24.13-10.57-53-5.65-65,19.26A40.36,40.36,0,0,0,81.09,83.83Z"/><path id="_Path_2" data-name="&lt;Path&gt;" class="cls-2" d="M115.72,49.57a42.93,42.93,0,0,0-4.89-16.87c-5-8.69-6.6-17.09-2.08-26.79-6.44.42-10.63,3.13-14.53,7.39-2.39,2.61-5.93,5.28-9.27,4.82-18.9-2.59-38.57,9.81-40.77,30.12-.31,2.86.23,5,3.06,6.08,7.07,2.72,15-.29,33.89-6.49,7.46.46,9.45,8.52,21,7.68C104,55.38,96,49.28,96.56,44.1c10.56-3.62,11.62,10.58,8.82,18.55C99.34,79.84,77.47,98.06,47.56,95q1.45.61,2.94,1.12c8.5,1.64,17.84.42,26-2.28-4.16,2.34-10.36,3.92-16.12,4.59.73.09,1.47.17,2.21.23,7.79-.07,16.87-1.51,28.15-11.05C87.59,91.45,79.88,96.4,75.43,98l0,.06C106.85,92.07,116.95,62.48,115.72,49.57Z"/><g id="_Group_2" data-name="&lt;Group&gt;"><path id="_Compound_Path_" data-name="&lt;Compound Path&gt;" class="cls-3" d="M3.71,156a3.82,3.82,0,0,1-2.77-.91A3.82,3.82,0,0,1,0,152.21v-11a3.82,3.82,0,0,1,.94-2.85,3.82,3.82,0,0,1,2.77-.91H17.15a3.82,3.82,0,0,1,2.77.91,3.82,3.82,0,0,1,.94,2.85v11a3.82,3.82,0,0,1-.94,2.85,3.82,3.82,0,0,1-2.77.91Zm10.63-4.08a1.13,1.13,0,0,0,.81-.23,1.23,1.23,0,0,0,.23-.87v-8.17a1.24,1.24,0,0,0-.23-.87,1.13,1.13,0,0,0-.81-.23H6.52a1.13,1.13,0,0,0-.81.23,1.23,1.23,0,0,0-.23.87v8.17a1.23,1.23,0,0,0,.23.87,1.13,1.13,0,0,0,.81.23Z"/><path id="_Compound_Path_2" data-name="&lt;Compound Path&gt;" class="cls-3" d="M31,155.4q0,.58-.55.58H26.08q-.55,0-.55-.58V141.52H23.16q-.58,0-.58-.55v-3q0-.55.58-.55H42.45a3.29,3.29,0,0,1,3.71,3.77v4.72a3.29,3.29,0,0,1-3.71,3.77H41.26l1,1.51a3.49,3.49,0,0,0,.43.51.86.86,0,0,0,.61.19H47.4q.58,0,.58.55v3q0,.55-.58.55H40.16a2.29,2.29,0,0,1-1.3-.33,2.57,2.57,0,0,1-.81-.91l-2.75-5H33q-.58,0-.58-.55v-2.9q0-.55.58-.55h6.66a1.13,1.13,0,0,0,.81-.23,1.23,1.23,0,0,0,.23-.87v-2a1.24,1.24,0,0,0-.23-.87,1.13,1.13,0,0,0-.81-.23H31Z"/><path id="_Compound_Path_3" data-name="&lt;Compound Path&gt;" class="cls-3" d="M55.32,150.79a1.23,1.23,0,0,0,.23.87,1.13,1.13,0,0,0,.81.23H67.84q.58,0,.58.55v3q0,.55-.58.55H53.56a3.29,3.29,0,0,1-3.71-3.77v-11a3.29,3.29,0,0,1,3.71-3.77H67.72q.58,0,.58.55v3q0,.55-.58.55H56.37a1.13,1.13,0,0,0-.81.23,1.23,1.23,0,0,0-.23.87Z"/><path id="_Compound_Path_4" data-name="&lt;Compound Path&gt;" class="cls-3" d="M75.92,155.54a.75.75,0,0,1-.7.43H71.17q-.35,0-.35-.32a1.19,1.19,0,0,1,.19-.54l.42-.74,7-12.86H75.6q-.58,0-.58-.55v-3q0-.55.58-.55h9.21a1.14,1.14,0,0,1,.61.13,1,1,0,0,1,.35.42l9.07,16.92a4,4,0,0,1,.23.42.82.82,0,0,1,.09.33q0,.32-.38.32H89.45a.71.71,0,0,1-.7-.43l-1.54-3.07H77.45Zm9.44-6.92-3-6.31-3,6.31Z"/><path id="_Compound_Path_5" data-name="&lt;Compound Path&gt;" class="cls-3" d="M97.63,156q-.58,0-.58-.55v-3q0-.55.58-.55H100V141.52H97.63q-.58,0-.58-.55v-3q0-.55.58-.55h19.29a3.29,3.29,0,0,1,3.71,3.77v11a3.29,3.29,0,0,1-3.71,3.77Zm16.48-4.08a1.13,1.13,0,0,0,.81-.23,1.23,1.23,0,0,0,.23-.87v-8.17a1.24,1.24,0,0,0-.23-.87,1.13,1.13,0,0,0-.81-.23h-8.63v10.37Z"/><path id="_Compound_Path_6" data-name="&lt;Compound Path&gt;" class="cls-3" d="M134.93,155.4q0,.58-.55.58H130q-.55,0-.55-.58V141.52H123.4q-.58,0-.58-.55v-3q0-.55.58-.55H141q.58,0,.58.55v3q0,.55-.58.55h-6.05Z"/></g><g id="_Group_3" data-name="&lt;Group&gt;"><path id="_Compound_Path_7" data-name="&lt;Compound Path&gt;" class="cls-3" d="M15.4,124.63a3.2,3.2,0,0,1-.11.69,3.64,3.64,0,0,1-.23.8H26.42v3.1H19.3a17.19,17.19,0,0,0,7.12,2.41l-1.61,2.87q-7.35-1.61-10-5.28H13.57q-3,3.79-11.48,5.28L.71,131.63q5.39-.57,7.92-2.41H.48v-3.1H11.27a4.48,4.48,0,0,0,.46-1.26v-.23Zm6.2.46V115a1.22,1.22,0,0,0-1.38-1.38H6.33q-1,.12-1.15,1.38v10.1H1.74V113.84q.23-3,3.44-3.21H9.07c.08-.15.19-.42.34-.8a7.69,7.69,0,0,1,.57-1.15h4.25c-.08.15-.19.42-.34.8a7.89,7.89,0,0,1-.57,1.15h7.94q3.79.11,3.9,3.79v10.67Zm-9.87-1.15V120h-6V117.4h6v-3.21h3.33v3.21h6V120h-6v3.9Zm-.92-4.15a11.77,11.77,0,0,1-1.49,5l-3.1-.46a23.5,23.5,0,0,0,1.38-4.5Zm.11-2.85H7.6a5.5,5.5,0,0,1-.8-2.41h3.33A11,11,0,0,0,10.93,116.94Zm5.05,0a14.13,14.13,0,0,0,.8-2.41h3.33a7.41,7.41,0,0,1-.8,2.41Zm.11,2.85H19.3a23.28,23.28,0,0,0,1.38,4.5l-3.1.46A11.7,11.7,0,0,1,16.09,119.79Z"/><path id="_Compound_Path_8" data-name="&lt;Compound Path&gt;" class="cls-3" d="M41.24,134.27h-3.9V121h-9v-3.44h9v-9.3h4v2.87H52.72v3.21H41.36v3.21H54.79V121H41.24v2.18H45.7l8.07,10.79H49.25l-8-10.67Z"/><path id="_Compound_Path_9" data-name="&lt;Compound Path&gt;" class="cls-3" d="M82.61,117.51v3.33H69.29L63.1,130H76.41l-3.67-6.89h4.13L82.72,134H78.5l-1.63-3.21L76.29,133H60.92a2,2,0,0,1-1.84-3.44l5.62-8.72H57.59v-3.33ZM60,113.15v-3.21H80.43v3.21Z"/><path id="_Compound_Path_10" data-name="&lt;Compound Path&gt;" class="cls-3" d="M90.23,116.11a20.37,20.37,0,0,1-2.3,6.68l-2.53-1.15a14.63,14.63,0,0,0,2-5.53Zm8.61,10.24a10.12,10.12,0,0,1-2.64,3.9c.31.15.8.38,1.49.69a7.94,7.94,0,0,1,1.15.57l-1.72,2.41q-1-.58-2.87-1.49l-.92-.46a27.53,27.53,0,0,1-6.43,2.18l-1.49-2.53a26.78,26.78,0,0,0,4.48-.92l-1.26-.57Q87,129.45,87,128.53a4,4,0,0,1,.69-2l.11-.34h-2v-2.75h3.56l.61-1h3.44l-.49,1h2.64q2.29,0,2.75.69A2.15,2.15,0,0,1,98.84,126.35Zm-13-10.1v-3h5v-4.71h3.33v4.71h5v3h-5v5.51H90.92v-5.51Zm4.25-3.56H87.24a20.57,20.57,0,0,1-.92-3.56h2.75A20.14,20.14,0,0,0,90.11,112.69Zm.69,14.46q-.34.69.46,1a1.22,1.22,0,0,0,.46.23,10.85,10.85,0,0,1,1.49.57,7,7,0,0,0,1.72-2q.46-.69-.57-.8h-3Zm4-11h2.87a17.75,17.75,0,0,0,1.38,4.5,59.14,59.14,0,0,0,3-12.05h3.33q-.34,1.84-.69,3.79h6.77v3.1h-1.38a30.17,30.17,0,0,1-2.64,11.48,18.7,18.7,0,0,0,4.71,4.82l-2.64,2.53a33.88,33.88,0,0,1-4.13-4.13,37.17,37.17,0,0,1-4.25,4.25L98.61,132a18.8,18.8,0,0,0,4.82-5.05,24.67,24.67,0,0,1-1.84-4.82l-2.07-.69.12.12v.11l-2.53,1.15A24.56,24.56,0,0,1,94.82,116.11Zm.23-3.42a12.41,12.41,0,0,0,1-3.56H99a21,21,0,0,1-.92,3.56Zm9,2.75a7.72,7.72,0,0,1-.69,2.41h.46a29.37,29.37,0,0,0,1.61,5.39,24,24,0,0,0,1.49-7.8Z"/><path id="_Compound_Path_11" data-name="&lt;Compound Path&gt;" class="cls-3" d="M121.11,131.28q-.12,2.52-3,2.64h-2.87l-.92-2.87h2.07a1.13,1.13,0,0,0,1-1.15V125a26.66,26.66,0,0,1-2.64.8l-.34-3.33,1.15-.34q1.26-.34,1.84-.46v-4.94h-2.75v-3.21h2.75v-4.71h3.67v4.71h2.07v3.21h-2.07v3.79l2.07-.69.23,3.21q-1.15.46-2.3.8Zm19.28-.46q-.12,3-3.21,3.1h-6.66q-2.76-.23-3-2.75V127.5a3,3,0,0,1,3-3.1h1.38v-2.07h-4.13a35.22,35.22,0,0,1-2.64,12.05l-3.67-1.15a29.49,29.49,0,0,0,2.75-13.2v-7.92a3,3,0,0,1,3.21-3.21h9.87q3,.12,3.1,3.33v1.84q-.12,3-3.33,3.21h-1.49v2h5.51v3.1h-5.51v2.07h1.72a3,3,0,0,1,3.1,3.1Zm-12.51-17.9v1.26h7.92q.92,0,.92-.69v-.8q-.12-.57-.92-.69h-7.12Q127.88,112,127.88,112.92Zm0,4.36v2h4v-2Zm3.21,11.36v1.26a1,1,0,0,0,1.15,1.15h3.33a1,1,0,0,0,1.15-1.15v-1.26a1,1,0,0,0-1.15-1.15h-3.33Q131.21,127.5,131.09,128.64Z"/></g></g></g></g></svg>